<svg xmlns:xlink="http://www.w3.org/1999/xlink" xmlns="http://www.w3.org/2000/svg" class="icon icon-cart_hollow normal" width="34"  height="34" ><defs><symbol viewBox="0 0 24 24" id="icon-cart_hollow"><path fill-rule="evenodd" d="M6.55 13l.308 2H20.5a.5.5 0 0 1 .5.5v1a.5.5 0 0 1-.5.5H6a1 1 0 0 1-.988-.848L3.142 4H.5a.5.5 0 0 1-.5-.5v-1A.5.5 0 0 1 .5 2H4a1 1 0 0 1 .988.848L5.165 4h16.588a1 1 0 0 1 .977 1.217l-.176.793-1.111 4.997-.269 1.21a1 1 0 0 1-.976.783H6.55zm-.296-1.927H19.44l1.11-5.035H5.479l.775 5.035zM10 20a2 2 0 1 1-3.999.001A2 2 0 0 1 10 20zm10 0a2 2 0 1 1-3.999.001A2 2 0 0 1 20 20z"></path></symbol></defs><use xlink:href="#icon-cart_hollow" fill="#FFFFFF"></use></svg>