<svg xmlns:xlink="http://www.w3.org/1999/xlink" xmlns="http://www.w3.org/2000/svg" class="icon icon-emoji flimoji flimoji-icon" width="24"  height="24" ><defs><symbol viewBox="0 0 24 24" id="icon-emoji"><path fill-rule="evenodd" d="M12 2c5.514 0 10 4.486 10 10s-4.486 10-10 10S2 17.514 2 12 6.486 2 12 2zm0 2c-4.411 0-8 3.589-8 8s3.589 8 8 8 8-3.589 8-8-3.589-8-8-8zm-4.512 8.5c.262 0 .49.166.576.406l.025.093c.303 1.62 1.415 3.01 3.911 3.01 2.41 0 3.529-1.295 3.876-2.842l.034-.166c.055-.29.308-.501.604-.501h1.002c.24 0 .436.195.436.436l-.002.033-.003.033C17.545 15.63 15.552 18 12 18c-3.455 0-5.421-2.242-5.893-4.783l-.036-.213a.438.438 0 0 1 .434-.504h.983zM9 8a1 1 0 1 1 0 2 1 1 0 0 1 0-2zm6 0a1 1 0 1 1 0 2 1 1 0 0 1 0-2z"></path></symbol></defs><use xlink:href="#icon-emoji" fill="#9EA4A7"></use></svg>