<svg xmlns:xlink="http://www.w3.org/1999/xlink" xmlns="http://www.w3.org/2000/svg" class="ft-icon ft-facebook" width="24"  height="24" ><defs><symbol viewBox="0 0 24 24" id="icon-facebook"><path d="M20.012 3.107H4.094a.988.988 0 0 0-.988.988v15.918a.989.989 0 0 0 .988.987h8.57v-6.929h-2.332v-2.7h2.332V9.379c0-2.311 1.411-3.57 3.473-3.57.988 0 1.836.074 2.084.106V8.33l-1.43.001c-1.121 0-1.338.533-1.338 1.315v1.724h2.674l-.348 2.7h-2.326V21h4.56a.987.987 0 0 0 .987-.988V4.094a.987.987 0 0 0-.988-.987z"></path></symbol></defs><use xlink:href="#icon-facebook" fill="#FFFFFF"></use></svg>