<svg xmlns:xlink="http://www.w3.org/1999/xlink" xmlns="http://www.w3.org/2000/svg" class="ft-icon ft-instagram" width="24"  height="24" ><defs><symbol viewBox="0 0 24 24" id="icon-instagram"><path fill-rule="evenodd" d="M12.497 2.999c1.94.001 2.269.014 3.148.054.953.044 1.603.195 2.173.417a4.374 4.374 0 0 1 1.586 1.032 4.39 4.39 0 0 1 1.033 1.586c.22.569.372 1.22.416 2.174.037.84.05 1.176.053 2.902v1.577c-.003 1.726-.016 2.062-.053 2.904-.044.953-.195 1.604-.416 2.173a4.39 4.39 0 0 1-1.033 1.586 4.387 4.387 0 0 1-1.586 1.032c-.57.222-1.22.374-2.173.417-.84.037-1.178.05-2.904.053h-1.577c-1.726-.003-2.062-.016-2.902-.053-.954-.043-1.604-.195-2.174-.417a4.387 4.387 0 0 1-1.586-1.032 4.39 4.39 0 0 1-1.033-1.586c-.221-.57-.372-1.22-.416-2.173-.04-.88-.053-1.208-.054-3.148v-1.089c.001-1.94.014-2.268.054-3.146.044-.953.195-1.605.416-2.174a4.39 4.39 0 0 1 1.033-1.586A4.374 4.374 0 0 1 6.088 3.47c.57-.222 1.22-.373 2.174-.417.836-.038 1.173-.051 2.88-.054h1.355zm.23 1.613h-1.549c-1.694.002-2.013.015-2.843.053-.873.04-1.347.186-1.663.308a2.768 2.768 0 0 0-1.03.67 2.772 2.772 0 0 0-.67 1.03c-.122.315-.268.789-.307 1.662-.04.83-.05 1.15-.052 2.843v1.549c.002 1.694.013 2.013.052 2.844.039.873.185 1.347.308 1.662.163.418.356.717.67 1.03a2.79 2.79 0 0 0 1.029.67c.316.123.79.268 1.663.308.83.037 1.15.05 2.843.052h1.549c1.694-.002 2.013-.015 2.844-.052.873-.04 1.347-.185 1.663-.308a2.79 2.79 0 0 0 1.029-.67c.314-.313.507-.612.67-1.03.123-.315.269-.79.308-1.662.038-.831.05-1.15.051-2.844v-1.549c-.002-1.694-.013-2.013-.051-2.843-.04-.873-.185-1.347-.308-1.662a2.772 2.772 0 0 0-.67-1.03 2.768 2.768 0 0 0-1.03-.67c-.315-.122-.79-.268-1.662-.308-.831-.038-1.15-.05-2.844-.053zm-.774 2.743a4.598 4.598 0 1 1 0 9.196 4.598 4.598 0 0 1 0-9.196zm0 1.613a2.984 2.984 0 1 0 0 5.968 2.984 2.984 0 0 0 0-5.968zm4.78-2.87a1.074 1.074 0 1 1-.001 2.15 1.074 1.074 0 0 1 0-2.15z"></path></symbol></defs><use xlink:href="#icon-instagram" fill="#FFFFFF"></use></svg>