<svg xmlns:xlink="http://www.w3.org/1999/xlink" xmlns="http://www.w3.org/2000/svg" class="icon icon-search mobile-search-button phone-and-tablet-only" width="24"  height="24" ><defs><symbol viewBox="0 0 24 24" id="icon-search"><path fill='rgb(60, 145, 214)'  d="M21.707 18.879l-4.823-4.823A7.945 7.945 0 0 0 18 10c0-4.411-3.589-8-8-8s-8 3.589-8 8 3.589 8 8 8a7.945 7.945 0 0 0 4.056-1.116l4.823 4.823a.999.999 0 0 0 1.414 0l1.414-1.414a1 1 0 0 0 0-1.414zM4 10c0-3.309 2.691-6 6-6s6 2.691 6 6-2.691 6-6 6-6-2.691-6-6z"></path></symbol></defs><use xlink:href="#icon-search" fill="#FFFFFF"></use></svg>
