<svg xmlns:xlink="http://www.w3.org/1999/xlink" xmlns="http://www.w3.org/2000/svg" class="icon icon-share_hollow share-icon" width="24"  height="24" ><defs><symbol viewBox="0 0 24 24" id="icon-share_hollow"><path d="M13 22a1 1 0 0 1-1-1v-4.99a12.453 12.453 0 0 0-9.198 4.61 1 1 0 0 1-1.775-.675C1.299 13.754 5.946 8.817 12 8.103V3a1 1 0 0 1 1.707-.707l9 9a.999.999 0 0 1 0 1.414l-9 9A1 1 0 0 1 13 22zm-.5-8h.5a1 1 0 0 1 1 1v3.586L20.586 12 14 5.414v3.61a1 1 0 0 1-.957.999c-4.434.191-8.104 3.055-9.463 7.046A14.433 14.433 0 0 1 12.5 14z"></path></symbol></defs><use xlink:href="#icon-share_hollow" fill="#808080"></use></svg>
