<svg xmlns:xlink="http://www.w3.org/1999/xlink" xmlns="http://www.w3.org/2000/svg" class="ft-icon ft-twitter" width="24"  height="24" ><defs><symbol viewBox="0 0 24 24" id="icon-twitter"><path d="M22.982 6.028a8.551 8.551 0 0 1-2.462.675 4.302 4.302 0 0 0 1.885-2.372 8.583 8.583 0 0 1-2.722 1.04 4.287 4.287 0 0 0-7.305 3.91 12.165 12.165 0 0 1-8.837-4.478 4.267 4.267 0 0 0-.58 2.155c0 1.487.757 2.8 1.907 3.568a4.268 4.268 0 0 1-1.942-.536v.054a4.29 4.29 0 0 0 3.439 4.204 4.29 4.29 0 0 1-1.936.073 4.29 4.29 0 0 0 4.005 2.977 8.6 8.6 0 0 1-5.324 1.835c-.346 0-.687-.02-1.023-.06A12.124 12.124 0 0 0 8.658 21c7.885 0 12.198-6.533 12.198-12.198 0-.186-.004-.371-.013-.555a8.713 8.713 0 0 0 2.139-2.219"></path></symbol></defs><use xlink:href="#icon-twitter" fill="#FFFFFF"></use></svg>