<svg width="1334" height="364" viewBox="0 0 1334 364" fill="none" xmlns="http://www.w3.org/2000/svg">
<path d="M61.0176 114.441L62.4824 153.992C82.3392 125.021 110.171 110.535 145.979 110.535C179.182 110.535 201.561 120.382 213.117 140.076C224.673 159.607 230.451 187.114 230.451 222.596V362H166.486V237.488C166.486 215.516 163.638 197.693 157.941 184.021C152.408 170.35 140.282 163.514 121.564 163.514C101.545 163.514 87.4661 171.57 79.3281 187.684C71.1901 203.634 67.1211 222.596 67.1211 244.568V362H2.91211V204.529C2.91211 169.536 2.09831 139.507 0.470703 114.441H61.0176ZM341.555 296.57V362H273.439V296.57H341.555ZM451.193 362H387.229V163.514H337.668V115.906H387.229C387.554 95.724 388.449 79.7734 389.914 68.0547C391.379 56.1732 395.204 45.0241 401.389 34.6074C409.038 22.7259 419.455 14.0996 432.639 8.72852C445.985 3.19466 460.389 0.427734 475.852 0.427734C487.57 0.427734 499.045 1.97396 510.275 5.06641L506.369 56.5801C500.021 54.4642 493.674 53.4062 487.326 53.4062C476.584 53.4062 468.527 56.5801 463.156 62.9277C457.785 69.1126 454.449 76.4368 453.146 84.9004C451.844 93.2012 451.193 103.536 451.193 115.906H507.346V163.514H451.193V362ZM592.326 362H528.361V1.89258H592.326V362ZM701.232 362H637.268V114.441H701.232V362ZM702.209 69.5195H636.291V8.97266H702.209V69.5195ZM913.654 300.477L917.316 354.432C895.832 360.779 876.626 363.953 859.699 363.953C840.819 363.953 823.485 361.105 807.697 355.408C791.91 349.549 778.319 341.085 766.926 330.018C755.695 318.95 747.069 305.522 741.047 289.734C735.188 273.784 732.258 256.206 732.258 237C732.258 212.586 737.466 190.939 747.883 172.059C758.462 153.178 773.273 138.53 792.316 128.113C811.522 117.697 833.169 112.488 857.258 112.488C875.161 112.488 893.309 115.174 911.701 120.545L906.818 172.059C892.17 166.362 878.986 163.514 867.268 163.514C853.921 163.514 841.958 166.85 831.379 173.523C820.799 180.034 812.661 188.823 806.965 199.891C801.431 210.796 798.664 223.003 798.664 236.512C798.664 258.81 805.174 276.714 818.195 290.223C831.216 303.732 848.713 310.486 870.686 310.486C884.683 310.486 899.006 307.15 913.654 300.477ZM1171.49 362H1090.43L1026.47 271.424C1018.82 260.519 1011.49 248.719 1004.49 236.023C1005.47 246.44 1005.96 257.264 1005.96 268.494V362H941.994V1.89258H1005.96V168.885C1005.96 185.161 1005.47 201.518 1004.49 217.957C1012.47 205.75 1019.47 195.903 1025.49 188.416L1085.06 114.441H1159.52L1067.48 225.037L1171.49 362ZM1251.58 362H1187.62V188.904C1186.81 147.726 1186.15 122.905 1185.67 114.441H1243.77L1245.24 176.941C1250.77 157.41 1259.15 141.785 1270.38 130.066C1281.78 118.348 1296.59 112.488 1314.82 112.488C1320.35 112.488 1326.62 113.302 1333.62 114.93V174.988C1325.15 172.71 1317.66 171.57 1311.15 171.57C1296.02 171.57 1283.97 175.558 1275.02 183.533C1266.07 191.508 1259.88 201.762 1256.47 214.295C1253.21 226.665 1251.58 240.255 1251.58 255.066V259.949V362Z" fill="white"/>
</svg>
