<svg width="2165" height="364" viewBox="0 0 2165 364" fill="none" xmlns="http://www.w3.org/2000/svg">
<path d="M892.018 114.441L893.482 153.992C913.339 125.021 941.171 110.535 976.979 110.535C1010.18 110.535 1032.56 120.382 1044.12 140.076C1055.67 159.607 1061.45 187.114 1061.45 222.596V362H997.486V237.488C997.486 215.516 994.638 197.693 988.941 184.021C983.408 170.35 971.282 163.514 952.564 163.514C932.545 163.514 918.466 171.57 910.328 187.684C902.19 203.634 898.121 222.596 898.121 244.568V362H833.912V204.529C833.912 169.536 833.098 139.507 831.471 114.441H892.018Z" fill="#2061cd"/>
<path d="M1172.55 296.57V362H1104.44V296.57H1172.55Z" fill="#2061cd"/>
<path d="M1282.19 362H1218.23V163.514H1168.67V115.906H1218.23C1218.55 95.724 1219.45 79.7734 1220.91 68.0547C1222.38 56.1732 1226.2 45.0241 1232.39 34.6074C1240.04 22.7259 1250.46 14.0996 1263.64 8.72852C1276.99 3.19466 1291.39 0.427734 1306.85 0.427734C1318.57 0.427734 1330.04 1.97396 1341.28 5.06641L1337.37 56.5801C1331.02 54.4642 1324.67 53.4062 1318.33 53.4062C1307.58 53.4062 1299.53 56.5801 1294.16 62.9277C1288.79 69.1126 1285.45 76.4368 1284.15 84.9004C1282.84 93.2012 1282.19 103.536 1282.19 115.906H1338.35V163.514H1282.19V362Z" fill="#2061cd"/>
<path d="M1423.33 362H1359.36V1.89258H1423.33V362Z" fill="#2061cd"/>
<path d="M1532.23 362H1468.27V114.441H1532.23V362ZM1533.21 69.5195H1467.29V8.97266H1533.21V69.5195Z" fill="#2061cd"/>
<path d="M1744.65 300.477L1748.32 354.432C1726.83 360.779 1707.63 363.953 1690.7 363.953C1671.82 363.953 1654.49 361.105 1638.7 355.408C1622.91 349.549 1609.32 341.085 1597.93 330.018C1586.7 318.95 1578.07 305.522 1572.05 289.734C1566.19 273.784 1563.26 256.206 1563.26 237C1563.26 212.586 1568.47 190.939 1578.88 172.059C1589.46 153.178 1604.27 138.53 1623.32 128.113C1642.52 117.697 1664.17 112.488 1688.26 112.488C1706.16 112.488 1724.31 115.174 1742.7 120.545L1737.82 172.059C1723.17 166.362 1709.99 163.514 1698.27 163.514C1684.92 163.514 1672.96 166.85 1662.38 173.523C1651.8 180.034 1643.66 188.823 1637.96 199.891C1632.43 210.796 1629.66 223.003 1629.66 236.512C1629.66 258.81 1636.17 276.714 1649.2 290.223C1662.22 303.732 1679.71 310.486 1701.69 310.486C1715.68 310.486 1730.01 307.15 1744.65 300.477Z" fill="#2061cd"/>
<path d="M2002.49 362H1921.43L1857.47 271.424C1849.82 260.519 1842.49 248.719 1835.49 236.023C1836.47 246.44 1836.96 257.264 1836.96 268.494V362H1772.99V1.89258H1836.96V168.885C1836.96 185.161 1836.47 201.518 1835.49 217.957C1843.47 205.75 1850.47 195.903 1856.49 188.416L1916.06 114.441H1990.52L1898.48 225.037L2002.49 362Z" fill="#2061cd"/>
<path d="M2082.58 362H2018.62V188.904C2017.81 147.726 2017.15 122.905 2016.67 114.441H2074.77L2076.24 176.941C2081.77 157.41 2090.15 141.785 2101.38 130.066C2112.78 118.348 2127.59 112.488 2145.82 112.488C2151.35 112.488 2157.62 113.302 2164.62 114.93V174.988C2156.15 172.71 2148.66 171.57 2142.15 171.57C2127.02 171.57 2114.97 175.558 2106.02 183.533C2097.07 191.508 2090.88 201.762 2087.47 214.295C2084.21 226.665 2082.58 240.255 2082.58 255.066V362Z" fill="#df3380"/>
<path d="M296 230C296 301.797 237.797 360 166 360C126.071 360 90.347 341.999 66.5 313.669C47.467 291.058 36 261.868 36 230C36 158.203 94.203 100 166 100C204.02 100 238.228 116.322 262 142.34C283.118 165.455 296 196.223 296 230Z" fill="#2161CD"/>
<path d="M296.647 231.66C296.647 303.457 238.444 361.66 166.647 361.66C126.719 361.66 90.9942 343.658 67.1473 315.329C61.0677 321.754 245.156 147.487 262.647 144C283.766 167.115 296.647 197.883 296.647 231.66Z" fill="#F3F5F6"/>
<path d="M366.5 193L296 234C289.15 219.195 269 206.5 251.142 202.826C225.217 197.493 214 202.826 201.582 213.95L61.2542 353H0L186.547 167.23C216 134.5 251.173 135.726 263.95 139.42C304 151 307 180 311.5 186.5C316 193 362.973 193.371 366.5 193Z" fill="#707070"/>
<!-- <path d="M282.392 204.544L300.268 190.247L220.016 196.36L218 211.728L282.392 204.544Z" fill="#FF655F"/> -->
<!-- <path d="M282.392 204.544L300.268 190.247L220.016 196.36L218 211.728L282.392 204.544Z" fill="#f6615c"/> -->
<!-- <path d="M282.392 204.544L300.268 190.247L220.016 196.36L218 211.728L282.392 204.544Z" fill="#ea3636"/> -->
<path d="M282.392 204.544L300.268 190.247L220.016 196.36L218 211.728L282.392 204.544Z" fill="#df3333"/>
<path d="M207 282.667C207 287.453 199.613 288 190.5 288C181.387 288 174 287.453 174 282.667C174 277.88 181.387 274 190.5 274C199.613 274 207 277.88 207 282.667Z" fill="black"/>
<path d="M275 274.048C275 278.492 268.06 279 259.5 279C250.94 279 244 278.492 244 274.048C244 269.603 250.94 266 259.5 266C268.06 266 275 269.603 275 274.048Z" fill="black"/>
<path d="M244 237.429C244 241.531 237.508 242 229.5 242C221.492 242 215 241.531 215 237.429C215 233.326 221.492 230 229.5 230C237.508 230 244 233.326 244 237.429Z" fill="black"/>
<path d="M222 327.667C222 332.453 215.06 333 206.5 333C197.94 333 191 332.453 191 327.667C191 322.88 197.94 319 206.5 319C215.06 319 222 322.88 222 327.667Z" fill="black"/>
<path d="M146 321.286C146 326.414 138.165 327 128.5 327C118.835 327 111 326.414 111 321.286C111 316.157 118.835 312 128.5 312C138.165 312 146 316.157 146 321.286Z" fill="black"/>
<path d="M662.5 230C662.5 301.797 604.297 360 532.5 360C492.571 360 456.847 341.999 433 313.669C413.967 291.058 402.5 261.868 402.5 230C402.5 158.203 460.703 100 532.5 100C570.52 100 604.728 116.322 628.5 142.34C649.618 165.455 662.5 196.223 662.5 230Z" fill="#DF3380"/>
<path d="M662.647 231.66C662.647 303.457 604.444 361.66 532.647 361.66C492.719 361.66 456.994 343.658 433.147 315.329C427.068 321.754 611.156 147.487 628.647 144C649.766 167.115 662.647 197.883 662.647 231.66Z" fill="#F3F5F6"/>
<path d="M733.5 195L663 236C656.15 221.195 636 208.5 618.142 204.826C592.217 199.493 581 204.826 568.582 215.95L428.254 355H367L553.547 169.23C583 136.5 618.173 137.726 630.95 141.42C671 153 674 182 678.5 188.5C683 195 729.973 195.371 733.5 195Z" fill="#707070"/>
<path d="M575 282.667C575 287.453 567.613 288 558.5 288C549.387 288 542 287.453 542 282.667C542 277.88 549.387 274 558.5 274C567.613 274 575 277.88 575 282.667Z" fill="black"/>
<path d="M643 274.048C643 278.492 636.06 279 627.5 279C618.94 279 612 278.492 612 274.048C612 269.603 618.94 266 627.5 266C636.06 266 643 269.603 643 274.048Z" fill="black"/>
<path d="M612 237.429C612 241.531 605.508 242 597.5 242C589.492 242 583 241.531 583 237.429C583 233.326 589.492 230 597.5 230C605.508 230 612 233.326 612 237.429Z" fill="black"/>
<path d="M590 327.667C590 332.453 583.06 333 574.5 333C565.94 333 559 332.453 559 327.667C559 322.88 565.94 319 574.5 319C583.06 319 590 322.88 590 327.667Z" fill="black"/>
<path d="M514 321.286C514 326.414 506.165 327 496.5 327C486.835 327 479 326.414 479 321.286C479 316.157 486.835 312 496.5 312C506.165 312 514 316.157 514 321.286Z" fill="black"/>
<!-- <path d="M645.392 210.544L663.268 196.247L583.016 202.36L581 217.728L645.392 210.544Z" fill="#FF655F"/> -->
<!-- <path d="M645.392 210.544L663.268 196.247L583.016 202.36L581 217.728L645.392 210.544Z" fill="#f6615c"/> -->
<!-- <path d="M645.392 210.544L663.268 196.247L583.016 202.36L581 217.728L645.392 210.544Z" fill="#ea3636"/> -->
<path d="M645.392 210.544L663.268 196.247L583.016 202.36L581 217.728L645.392 210.544Z" fill="#df3333"/>
</svg>
