<svg width="968" height="346" viewBox="0 0 968 346" fill="none" xmlns="http://www.w3.org/2000/svg">
<path d="M391 171.5C391 266.217 313.993 343 219 343C166.171 343 118.905 319.252 87.3538 281.879C62.1717 252.05 47 213.542 47 171.5C47 76.7832 124.007 0 219 0C269.304 0 314.564 21.5319 346.015 55.8567C373.957 86.3504 391 126.941 391 171.5Z" fill="#2161CD"/>
<path d="M392 174.586C392 269.255 314.953 346 219.91 346C167.054 346 119.763 322.264 88.1949 284.909C80.147 293.382 323.837 63.5974 346.992 59C374.948 89.4785 392 130.048 392 174.586Z" fill="#F3F5F6"/>
<path d="M484 123.056L390.898 177.111C381.852 157.592 355.241 140.855 331.658 136.012C297.421 128.981 282.608 136.012 266.209 150.677L80.8923 334H0L246.354 89.0811C285.25 45.93 331.7 47.5462 348.572 52.4166C401.462 67.6836 405.424 105.917 411.367 114.487C417.31 123.056 479.343 123.545 484 123.056Z" fill="#707070"/>
<!-- <path d="M372.718 138.408L396.312 119.539L290.391 127.606L287.73 147.89L372.718 138.408Z" fill="#FF655F"/> -->
<!-- <path d="M372.718 138.408L396.312 119.539L290.391 127.606L287.73 147.89L372.718 138.408Z" fill="#f6615c"/> -->
<!-- <path d="M372.718 138.408L396.312 119.539L290.391 127.606L287.73 147.89L372.718 138.408Z" fill="#ea3636"/> -->
<path d="M372.718 138.408L396.312 119.539L290.391 127.606L287.73 147.89L372.718 138.408Z" fill="#df3333"/>
<path d="M273.211 241.519C273.211 247.837 263.461 248.559 251.434 248.559C239.406 248.559 229.656 247.837 229.656 241.519C229.656 235.202 239.406 230.081 251.434 230.081C263.461 230.081 273.211 235.202 273.211 241.519Z" fill="black"/>
<path d="M362.962 230.143C362.962 236.01 353.803 236.68 342.504 236.68C331.206 236.68 322.046 236.01 322.046 230.143C322.046 224.277 331.206 219.522 342.504 219.522C353.803 219.522 362.962 224.277 362.962 230.143Z" fill="black"/>
<path d="M322.046 181.811C322.046 187.226 313.478 187.845 302.908 187.845C292.339 187.845 283.77 187.226 283.77 181.811C283.77 176.396 292.339 172.007 302.908 172.007C313.478 172.007 322.046 176.396 322.046 181.811Z" fill="black"/>
<path d="M293.009 300.913C293.009 307.231 283.85 307.953 272.552 307.953C261.253 307.953 252.094 307.231 252.094 300.913C252.094 294.596 261.253 289.474 272.552 289.474C283.85 289.474 293.009 294.596 293.009 300.913Z" fill="black"/>
<path d="M192.7 292.491C192.7 299.26 182.359 300.033 169.602 300.033C156.846 300.033 146.505 299.26 146.505 292.491C146.505 285.723 156.846 280.235 169.602 280.235C182.359 280.235 192.7 285.723 192.7 292.491Z" fill="black"/>
<path d="M875 171.5C875 266.217 797.993 343 703 343C650.171 343 602.905 319.252 571.354 281.879C546.172 252.05 531 213.542 531 171.5C531 76.7832 608.007 0 703 0C753.304 0 798.564 21.5319 830.015 55.8567C857.957 86.3504 875 126.941 875 171.5Z" fill="#DF3380"/>
<path d="M875 174.586C875 269.255 797.953 346 702.91 346C650.054 346 602.763 322.264 571.195 284.909C563.147 293.382 806.837 63.5974 829.992 59C857.948 89.4785 875 130.048 875 174.586Z" fill="#F3F5F6"/>
<path d="M968 126.056L874.898 180.111C865.852 160.592 839.241 143.855 815.658 139.012C781.421 131.981 766.608 139.012 750.209 153.677L564.892 337H484L730.354 92.0811C769.25 48.93 815.7 50.5462 832.572 55.4166C885.462 70.6836 889.424 108.917 895.367 117.487C901.31 126.056 963.343 126.545 968 126.056Z" fill="#707070"/>
<path d="M758.921 241.519C758.921 247.837 749.171 248.559 737.143 248.559C725.116 248.559 715.365 247.837 715.365 241.519C715.365 235.202 725.116 230.081 737.143 230.081C749.171 230.081 758.921 235.202 758.921 241.519Z" fill="black"/>
<path d="M848.671 230.143C848.671 236.01 839.512 236.68 828.213 236.68C816.915 236.68 807.756 236.01 807.756 230.143C807.756 224.277 816.915 219.522 828.213 219.522C839.512 219.522 848.671 224.277 848.671 230.143Z" fill="black"/>
<path d="M807.756 181.811C807.756 187.226 799.187 187.845 788.618 187.845C778.048 187.845 769.48 187.226 769.48 181.811C769.48 176.396 778.048 172.007 788.618 172.007C799.187 172.007 807.756 176.396 807.756 181.811Z" fill="black"/>
<path d="M778.719 300.913C778.719 307.231 769.559 307.953 758.261 307.953C746.962 307.953 737.803 307.231 737.803 300.913C737.803 294.596 746.962 289.474 758.261 289.474C769.559 289.474 778.719 294.596 778.719 300.913Z" fill="black"/>
<path d="M678.409 292.491C678.409 299.26 668.068 300.033 655.312 300.033C642.555 300.033 632.214 299.26 632.214 292.491C632.214 285.723 642.555 280.235 655.312 280.235C668.068 280.235 678.409 285.723 678.409 292.491Z" fill="black"/>
<!-- <path d="M851.828 146.327L875.422 127.458L769.501 135.525L766.84 155.809L851.828 146.327Z" fill="#FF655F"/> -->
<!-- <path d="M851.828 146.327L875.422 127.458L769.501 135.525L766.84 155.809L851.828 146.327Z" fill="#f6615c"/> -->
<!-- <path d="M851.828 146.327L875.422 127.458L769.501 135.525L766.84 155.809L851.828 146.327Z" fill="#ea3636"/> -->
<path d="M851.828 146.327L875.422 127.458L769.501 135.525L766.84 155.809L851.828 146.327Z" fill="#df3333"/>
</svg>
