<svg width="311" height="111" viewBox="0 0 311 111" fill="none" xmlns="http://www.w3.org/2000/svg">
<path d="M125.621 55.0188C125.621 85.4048 100.88 110.038 70.3605 110.038C53.3877 110.038 38.202 102.419 28.0651 90.4293C19.9746 80.86 15.1002 68.5061 15.1002 55.0188C15.1002 24.6327 39.8411 0 70.3605 0C86.5222 0 101.063 6.90765 111.168 17.9193C120.145 27.702 125.621 40.7237 125.621 55.0188Z" fill="#2161CD"/>
<path d="M125.942 56.0087C125.942 86.3795 101.188 111 70.6529 111C53.6711 111 38.4775 103.385 28.3354 91.4015C25.7497 94.1196 104.043 20.4026 111.482 18.9277C120.464 28.7055 125.942 41.7207 125.942 56.0087Z" fill="#F3F5F6"/>
<path d="M155.5 39.4776L125.588 56.8187C122.682 50.5569 114.132 45.1875 106.556 43.6338C95.5558 41.3782 90.7967 43.6338 85.528 48.3387L25.9892 107.15H0L79.1488 28.578C91.6453 14.7348 106.569 15.2533 111.99 16.8157C128.982 21.7135 130.255 33.9792 132.164 36.7284C134.074 39.4776 154.004 39.6344 155.5 39.4776Z" fill="#707070"/>
<!-- <path d="M119.747 44.4025L127.328 38.3492L93.2972 40.9373L92.4422 47.4446L119.747 44.4025Z" fill="#FF655F"/> -->
<path d="M119.747 44.4025L127.328 38.3492L93.2972 40.9373L92.4422 47.4446L119.747 44.4025Z" fill="#df3333"/>
<path d="M87.7777 77.4817C87.7777 79.5084 84.6451 79.7399 80.7809 79.7399C76.9167 79.7399 73.7841 79.5084 73.7841 77.4817C73.7841 75.455 76.9167 73.812 80.7809 73.812C84.6451 73.812 87.7777 75.455 87.7777 77.4817Z" fill="black"/>
<path d="M116.613 73.8322C116.613 75.7141 113.67 75.9291 110.04 75.9291C106.41 75.9291 103.467 75.7141 103.467 73.8322C103.467 71.9502 106.41 70.4246 110.04 70.4246C113.67 70.4246 116.613 71.9502 116.613 73.8322Z" fill="black"/>
<path d="M103.467 58.3268C103.467 60.064 100.715 60.2624 97.3187 60.2624C93.9229 60.2624 91.17 60.064 91.17 58.3268C91.17 56.5896 93.9229 55.1813 97.3187 55.1813C100.715 55.1813 103.467 56.5896 103.467 58.3268Z" fill="black"/>
<path d="M94.1383 96.5358C94.1383 98.5625 91.1956 98.794 87.5656 98.794C83.9356 98.794 80.9929 98.5625 80.9929 96.5358C80.9929 94.5091 83.9356 92.8661 87.5656 92.8661C91.1956 92.8661 94.1383 94.5091 94.1383 96.5358Z" fill="black"/>
<path d="M61.9108 93.8339C61.9108 96.0054 58.5884 96.2535 54.49 96.2535C50.3916 96.2535 47.0692 96.0054 47.0692 93.8339C47.0692 91.6624 50.3916 89.9021 54.49 89.9021C58.5884 89.9021 61.9108 91.6624 61.9108 93.8339Z" fill="black"/>
<path d="M281.121 55.0188C281.121 85.4048 256.38 110.038 225.861 110.038C208.888 110.038 193.702 102.419 183.565 90.4293C175.475 80.86 170.6 68.5061 170.6 55.0188C170.6 24.6327 195.341 0 225.861 0C242.022 0 256.563 6.90765 266.668 17.9193C275.645 27.702 281.121 40.7237 281.121 55.0188Z" fill="#DF3380"/>
<path d="M281.121 56.0087C281.121 86.3795 256.367 111 225.832 111C208.85 111 193.656 103.385 183.514 91.4015C180.928 94.1196 259.221 20.4026 266.661 18.9277C275.642 28.7055 281.121 41.7207 281.121 56.0087Z" fill="#F3F5F6"/>
<path d="M311 40.44L281.088 57.7812C278.182 51.5193 269.632 46.1499 262.056 44.5962C251.056 42.3406 246.297 44.5962 241.028 49.3012L181.489 108.113H155.5L234.649 29.5405C247.145 15.6972 262.069 16.2157 267.49 17.7782C284.482 22.676 285.755 34.9416 287.664 37.6908C289.574 40.4401 309.504 40.5969 311 40.44Z" fill="#707070"/>
<path d="M243.827 77.4817C243.827 79.5084 240.694 79.7399 236.83 79.7399C232.966 79.7399 229.833 79.5084 229.833 77.4817C229.833 75.455 232.966 73.812 236.83 73.812C240.694 73.812 243.827 75.455 243.827 77.4817Z" fill="black"/>
<path d="M272.662 73.8322C272.662 75.7141 269.719 75.9291 266.089 75.9291C262.459 75.9291 259.517 75.7141 259.517 73.8322C259.517 71.9502 262.459 70.4246 266.089 70.4246C269.719 70.4246 272.662 71.9502 272.662 73.8322Z" fill="black"/>
<path d="M259.517 58.3268C259.517 60.064 256.764 60.2624 253.368 60.2624C249.972 60.2624 247.219 60.064 247.219 58.3268C247.219 56.5896 249.972 55.1813 253.368 55.1813C256.764 55.1813 259.517 56.5896 259.517 58.3268Z" fill="black"/>
<path d="M250.188 96.5358C250.188 98.5625 247.245 98.794 243.615 98.794C239.985 98.794 237.042 98.5625 237.042 96.5358C237.042 94.5091 239.985 92.8661 243.615 92.8661C247.245 92.8661 250.188 94.5091 250.188 96.5358Z" fill="black"/>
<path d="M217.96 93.8339C217.96 96.0054 214.638 96.2535 210.539 96.2535C206.441 96.2535 203.118 96.0054 203.118 93.8339C203.118 91.6624 206.441 89.9021 210.539 89.9021C214.638 89.9021 217.96 91.6624 217.96 93.8339Z" fill="black"/>
<!-- <path d="M273.676 46.943L281.257 40.8897L247.226 43.4778L246.371 49.9851L273.676 46.943Z" fill="#FF655F"/> -->
<path d="M273.676 46.943L281.257 40.8897L247.226 43.4778L246.371 49.9851L273.676 46.943Z" fill="#df3333"/>
</svg>
