<svg width="2160" height="262" viewBox="0 0 2160 262" fill="none" xmlns="http://www.w3.org/2000/svg">
<path d="M886.586 98.0175L888.052 123.694C907.921 104.886 935.771 95.4815 971.601 95.4815C1004.83 95.4815 1027.22 101.874 1038.78 114.66C1050.35 127.339 1056.13 145.196 1056.13 168.231V258.732H992.122V177.899C992.122 163.635 989.272 152.064 983.572 143.189C978.034 134.313 965.901 129.875 947.171 129.875C927.139 129.875 913.051 135.105 904.908 145.566C896.765 155.921 892.693 168.231 892.693 182.496V258.732H828.443V156.502C828.443 133.785 827.629 114.29 826 98.0175H886.586Z" fill="#2061cd"/>
<path d="M1167.3 216.255V258.732H1099.14V216.255H1167.3Z" fill="#2061cd"/>
<path d="M1277.01 258.732H1213.01V129.875H1163.41V98.9684H1213.01C1213.33 85.8661 1214.23 75.5111 1215.69 67.9033C1217.16 60.1898 1220.99 52.9519 1227.18 46.1894C1234.83 38.4759 1245.25 32.8758 1258.45 29.3889C1271.8 25.7963 1286.21 24 1301.69 24C1313.41 24 1324.89 25.0038 1336.13 27.0114L1332.22 60.454C1325.87 59.0804 1319.52 58.3936 1313.17 58.3936C1302.42 58.3936 1294.36 60.454 1288.98 64.5749C1283.61 68.5901 1280.27 73.345 1278.97 78.8395C1277.66 84.2283 1277.01 90.938 1277.01 98.9684H1333.2V129.875H1277.01V258.732Z" fill="#2061cd"/>
<path d="M1418.24 258.732H1354.23V24.951H1418.24V258.732Z" fill="#2061cd"/>
<path d="M1527.21 258.732H1463.21V98.0175H1527.21V258.732ZM1528.19 68.8543H1462.23V29.5473H1528.19V68.8543Z" fill="#2061cd"/>
<path d="M1739.77 218.791L1743.43 253.819C1721.94 257.94 1702.72 260 1685.78 260C1666.89 260 1649.54 258.151 1633.74 254.453C1617.95 250.649 1604.35 245.154 1592.95 237.969C1581.71 230.784 1573.08 222.067 1567.05 211.817C1561.19 201.462 1558.26 190.051 1558.26 177.582C1558.26 161.733 1563.47 147.679 1573.89 135.422C1584.48 123.165 1599.3 113.656 1618.35 106.893C1637.57 100.131 1659.23 96.7495 1683.34 96.7495C1701.25 96.7495 1719.41 98.4929 1737.82 101.98L1732.93 135.422C1718.27 131.724 1705.08 129.875 1693.35 129.875C1680 129.875 1668.03 132.041 1657.44 136.373C1646.86 140.6 1638.71 146.306 1633.01 153.491C1627.47 160.57 1624.71 168.495 1624.71 177.265C1624.71 191.741 1631.22 203.364 1644.25 212.134C1657.28 220.904 1674.79 225.289 1696.77 225.289C1710.78 225.289 1725.11 223.123 1739.77 218.791Z" fill="#2061cd"/>
<path d="M1997.77 258.732H1916.66L1852.65 199.93C1845 192.851 1837.67 185.19 1830.67 176.948C1831.64 183.711 1832.13 190.737 1832.13 198.028V258.732H1768.13V24.951H1832.13V133.362C1832.13 143.928 1831.64 154.548 1830.67 165.22C1838.65 157.295 1845.65 150.902 1851.68 146.042L1911.29 98.0175H1985.8L1893.7 169.816L1997.77 258.732Z" fill="#2061cd"/>
<path d="M2077.92 258.732H2013.91V146.359C2013.1 119.626 2012.44 103.512 2011.96 98.0175H2070.1L2071.56 138.592C2077.1 125.913 2085.49 115.769 2096.73 108.161C2108.13 100.553 2122.95 96.7495 2141.19 96.7495C2146.73 96.7495 2153 97.2778 2160 98.3344V137.324C2151.53 135.845 2144.04 135.105 2137.52 135.105C2122.38 135.105 2110.33 137.694 2101.37 142.872C2092.41 148.049 2086.22 154.706 2082.8 162.842C2079.54 170.873 2077.92 179.696 2077.92 189.311V258.732Z" fill="#df3380"/>
<path d="M296 130C296 201.797 237.797 260 166 260C126.071 260 90.347 241.999 66.5 213.669C47.467 191.058 36 161.868 36 130C36 58.203 94.203 0 166 0C204.02 0 238.228 16.3216 262 42.3403C283.118 65.4551 296 96.2232 296 130Z" fill="#2161CD"/>
<path d="M296.647 131.66C296.647 203.457 238.444 261.66 166.647 261.66C126.719 261.66 90.9942 243.658 67.1473 215.329C61.0677 221.754 245.156 47.4867 262.647 44C283.766 67.1148 296.647 97.8829 296.647 131.66Z" fill="#F3F5F6"/>
<path d="M366.5 92.9999L296 134C289.15 119.195 269 106.5 251.142 102.826C225.217 97.4935 214 102.826 201.582 113.95L61.2542 253H0L186.547 67.2298C216 34.4999 251.173 35.7257 263.95 39.4199C304 50.9999 307 79.9998 311.5 86.4999C316 92.9999 362.973 93.3707 366.5 92.9999Z" fill="#707070"/>
<!-- <path d="M282.392 104.544L300.268 90.2475L220.016 96.3598L218 111.728L282.392 104.544Z" fill="#FF655F"/> -->
<!-- <path d="M282.392 104.544L300.268 90.2475L220.016 96.3598L218 111.728L282.392 104.544Z" fill="#f6615c"/> -->
<!-- <path d="M282.392 104.544L300.268 90.2475L220.016 96.3598L218 111.728L282.392 104.544Z" fill="#ea3636"/> -->
<path d="M282.392 104.544L300.268 90.2475L220.016 96.3598L218 111.728L282.392 104.544Z" fill="#df3333"/>
<path d="M207 182.667C207 187.453 199.613 188 190.5 188C181.387 188 174 187.453 174 182.667C174 177.88 181.387 174 190.5 174C199.613 174 207 177.88 207 182.667Z" fill="black"/>
<path d="M275 174.048C275 178.492 268.06 179 259.5 179C250.94 179 244 178.492 244 174.048C244 169.603 250.94 166 259.5 166C268.06 166 275 169.603 275 174.048Z" fill="black"/>
<path d="M244 137.429C244 141.531 237.508 142 229.5 142C221.492 142 215 141.531 215 137.429C215 133.326 221.492 130 229.5 130C237.508 130 244 133.326 244 137.429Z" fill="black"/>
<path d="M222 227.667C222 232.453 215.06 233 206.5 233C197.94 233 191 232.453 191 227.667C191 222.88 197.94 219 206.5 219C215.06 219 222 222.88 222 227.667Z" fill="black"/>
<path d="M146 221.286C146 226.414 138.165 227 128.5 227C118.835 227 111 226.414 111 221.286C111 216.157 118.835 212 128.5 212C138.165 212 146 216.157 146 221.286Z" fill="black"/>
<path d="M662.5 130C662.5 201.797 604.297 260 532.5 260C492.571 260 456.847 241.999 433 213.669C413.967 191.058 402.5 161.868 402.5 130C402.5 58.203 460.703 0 532.5 0C570.52 0 604.728 16.3216 628.5 42.3403C649.618 65.4551 662.5 96.2232 662.5 130Z" fill="#DF3380"/>
<path d="M662.647 131.66C662.647 203.457 604.444 261.66 532.647 261.66C492.719 261.66 456.994 243.658 433.147 215.329C427.068 221.754 611.156 47.4867 628.647 44C649.766 67.1148 662.647 97.8829 662.647 131.66Z" fill="#F3F5F6"/>
<path d="M733.5 94.9999L663 136C656.15 121.195 636 108.5 618.142 104.826C592.217 99.4935 581 104.826 568.582 115.95L428.254 255H367L553.547 69.2298C583 36.4999 618.173 37.7257 630.95 41.4199C671 52.9999 674 81.9998 678.5 88.4999C683 94.9999 729.973 95.3707 733.5 94.9999Z" fill="#707070"/>
<path d="M575 182.667C575 187.453 567.613 188 558.5 188C549.387 188 542 187.453 542 182.667C542 177.88 549.387 174 558.5 174C567.613 174 575 177.88 575 182.667Z" fill="black"/>
<path d="M643 174.048C643 178.492 636.06 179 627.5 179C618.94 179 612 178.492 612 174.048C612 169.603 618.94 166 627.5 166C636.06 166 643 169.603 643 174.048Z" fill="black"/>
<path d="M612 137.429C612 141.531 605.508 142 597.5 142C589.492 142 583 141.531 583 137.429C583 133.326 589.492 130 597.5 130C605.508 130 612 133.326 612 137.429Z" fill="black"/>
<path d="M590 227.667C590 232.453 583.06 233 574.5 233C565.94 233 559 232.453 559 227.667C559 222.88 565.94 219 574.5 219C583.06 219 590 222.88 590 227.667Z" fill="black"/>
<path d="M514 221.286C514 226.414 506.165 227 496.5 227C486.835 227 479 226.414 479 221.286C479 216.157 486.835 212 496.5 212C506.165 212 514 216.157 514 221.286Z" fill="black"/>
<!-- <path d="M645.392 110.544L663.268 96.2475L583.016 102.36L581 117.728L645.392 110.544Z" fill="#FF655F"/> -->
<!-- <path d="M645.392 110.544L663.268 96.2475L583.016 102.36L581 117.728L645.392 110.544Z" fill="#f6615c"/> -->
<!-- <path d="M645.392 110.544L663.268 96.2475L583.016 102.36L581 117.728L645.392 110.544Z" fill="#ea3636"/> -->
<path d="M645.392 110.544L663.268 96.2475L583.016 102.36L581 117.728L645.392 110.544Z" fill="#df3333"/>
</svg>
