<svg width="1334" height="236" viewBox="0 0 1334 236" fill="none" xmlns="http://www.w3.org/2000/svg">
<path d="M60.5857 74.0175L62.0515 99.6938C81.921 80.8856 109.771 71.4815 145.601 71.4815C178.826 71.4815 201.22 77.8742 212.783 90.6595C224.346 103.339 230.128 121.196 230.128 144.231V234.732H166.122V153.899C166.122 139.635 163.272 128.064 157.572 119.189C152.034 110.313 139.901 105.875 121.171 105.875C101.139 105.875 87.0513 111.105 78.908 121.566C70.7648 131.921 66.6932 144.231 66.6932 158.496V234.732H2.44297V132.502C2.44297 109.785 1.62865 90.2897 0 74.0175H60.5857Z" fill="white"/>
<path d="M341.303 192.255V234.732H273.144V192.255H341.303Z" fill="white"/>
<path d="M451.012 234.732H387.006V105.875H337.414V74.9684H387.006C387.332 61.8661 388.227 51.5111 389.693 43.9033C391.159 36.1898 394.986 28.9519 401.175 22.1894C408.83 14.4759 419.253 8.87576 432.445 5.38885C445.8 1.79628 460.214 0 475.686 0C487.412 0 498.894 1.00381 510.132 3.01142L506.223 36.454C499.871 35.0804 493.52 34.3936 487.168 34.3936C476.419 34.3936 468.357 36.454 462.982 40.5749C457.608 44.5901 454.269 49.345 452.966 54.8395C451.663 60.2283 451.012 66.938 451.012 74.9684H507.2V105.875H451.012V234.732Z" fill="white"/>
<path d="M592.235 234.732H528.229V0.950974H592.235V234.732Z" fill="white"/>
<path d="M701.211 234.732H637.206V74.0175H701.211V234.732ZM702.189 44.8543H636.228V5.54735H702.189V44.8543Z" fill="white"/>
<path d="M913.77 194.791L917.434 229.819C895.936 233.94 876.718 236 859.78 236C840.888 236 823.542 234.151 807.745 230.453C791.947 226.649 778.347 221.154 766.947 213.969C755.709 206.784 747.077 198.067 741.051 187.817C735.188 177.462 732.257 166.051 732.257 153.582C732.257 137.733 737.468 123.679 747.892 111.422C758.478 99.1654 773.299 89.6557 792.354 82.8932C811.572 76.1307 833.233 72.7495 857.337 72.7495C875.252 72.7495 893.411 74.4929 911.815 77.9799L906.929 111.422C892.271 107.724 879.079 105.875 867.353 105.875C853.998 105.875 842.028 108.041 831.441 112.373C820.855 116.6 812.712 122.306 807.012 129.491C801.474 136.57 798.706 144.495 798.706 153.265C798.706 167.741 805.22 179.364 818.249 188.134C831.279 196.904 848.787 201.289 870.773 201.289C884.78 201.289 899.112 199.123 913.77 194.791Z" fill="white"/>
<path d="M1171.77 234.732H1090.66L1026.65 175.93C1019 168.851 1011.67 161.19 1004.67 152.948C1005.64 159.711 1006.13 166.737 1006.13 174.028V234.732H942.128V0.950974H1006.13V109.362C1006.13 119.928 1005.64 130.548 1004.67 141.22C1012.65 133.295 1019.65 126.902 1025.68 122.042L1085.29 74.0175H1159.8L1067.7 145.816L1171.77 234.732Z" fill="white"/>
<path d="M1251.92 234.732H1187.91V122.359C1187.1 95.6257 1186.44 79.512 1185.96 74.0175H1244.1L1245.56 114.592C1251.1 101.913 1259.49 91.769 1270.73 84.1612C1282.13 76.5534 1296.95 72.7495 1315.19 72.7495C1320.73 72.7495 1327 73.2778 1334 74.3345V113.324C1325.53 111.845 1318.04 111.105 1311.52 111.105C1296.38 111.105 1284.33 113.694 1275.37 118.872C1266.41 124.049 1260.22 130.706 1256.8 138.842C1253.54 146.873 1251.92 155.696 1251.92 165.311V234.732Z" fill="white"/>
</svg>
